<?xml version="1.0" standalone="no"?>
<!DOCTYPE svg PUBLIC "-//W3C//DTD SVG 20010904//EN"
 "http://www.w3.org/TR/2001/REC-SVG-20010904/DTD/svg10.dtd">
<svg version="1.0" xmlns="http://www.w3.org/2000/svg"
 width="766.000000pt" height="764.000000pt" viewBox="0 0 766.000000 764.000000"
 preserveAspectRatio="xMidYMid meet">

<g transform="translate(0.000000,764.000000) scale(0.100000,-0.100000)"
fill="#000000" stroke="none">
<path d="M3575 6899 c-33 -4 -118 -30 -190 -57 -71 -28 -157 -61 -190 -73 -55
-21 -137 -75 -192 -128 -12 -12 -25 -21 -27 -21 -12 0 -45 -34 -40 -42 3 -4
-4 -8 -15 -8 -10 0 -30 -12 -43 -27 -26 -30 -50 -47 -85 -63 -12 -5 -43 -29
-69 -54 -26 -26 -53 -46 -59 -46 -12 0 -47 -43 -57 -70 -7 -20 -125 -81 -208
-109 -91 -30 -95 -33 -92 -78 4 -47 -18 -93 -54 -113 -18 -11 -28 -25 -30 -45
-1 -17 -6 -45 -10 -64 -4 -22 -3 -36 6 -41 18 -11 3 -61 -20 -67 -11 -3 -20
-12 -20 -19 0 -8 -9 -19 -20 -26 -11 -7 -20 -20 -20 -30 0 -9 -5 -18 -12 -20
-9 -3 -9 -12 0 -38 7 -19 8 -37 3 -44 -16 -20 -35 -127 -24 -134 6 -4 13 -28
17 -54 4 -27 11 -48 17 -48 5 0 9 -11 9 -24 0 -13 5 -26 12 -28 16 -6 36 -80
28 -103 -4 -12 -1 -28 6 -40 8 -11 14 -39 14 -62 0 -37 3 -43 25 -49 20 -5 23
-9 15 -24 -6 -10 -10 -34 -10 -53 0 -33 1 -34 35 -30 28 3 33 0 29 -12 -4 -9
0 -15 10 -15 9 0 18 -12 22 -27 3 -16 8 -37 11 -48 3 -11 2 -17 -2 -13 -3 3
-22 -10 -40 -29 -26 -27 -36 -49 -44 -98 -14 -81 -14 -100 4 -141 8 -19 21
-49 29 -66 8 -18 18 -45 21 -60 13 -50 21 -29 15 35 -6 58 3 117 19 117 4 0 5
15 3 33 -2 23 4 42 22 66 25 34 33 27 17 -13 -4 -11 -2 -45 6 -75 10 -44 10
-68 1 -113 -9 -43 -9 -66 0 -95 11 -37 56 -92 67 -82 2 3 5 95 6 204 1 110 4
223 8 252 l6 51 37 -13 c78 -27 85 -36 90 -122 3 -48 12 -96 25 -124 18 -40
27 -48 77 -68 51 -21 61 -30 57 -53 0 -5 8 -8 19 -8 11 0 39 -5 62 -10 58 -14
248 -52 273 -54 20 -3 48 -43 39 -58 -3 -4 -12 -8 -19 -8 -9 0 -12 -6 -8 -16
5 -14 2 -16 -20 -10 -19 4 -33 0 -56 -20 -17 -14 -29 -30 -25 -35 3 -5 -6 -13
-20 -18 -13 -6 -27 -19 -31 -30 -3 -12 -10 -21 -15 -21 -4 0 -10 -10 -13 -22
-5 -18 -8 -19 -21 -9 -9 7 -21 11 -28 8 -8 -4 -7 -6 5 -6 23 -1 22 -28 -3 -41
-11 -6 -17 -16 -14 -25 4 -8 2 -15 -3 -15 -20 0 -65 -51 -59 -66 3 -9 12 -14
20 -11 7 3 19 0 25 -6 8 -8 3 -16 -17 -29 -20 -13 -22 -18 -10 -18 10 0 22 -9
28 -21 7 -12 17 -18 27 -15 19 8 37 -12 42 -44 1 -14 8 -28 14 -32 7 -4 4 -12
-6 -23 -21 -21 -21 -27 2 -76 21 -42 19 -69 -5 -69 -8 0 -14 -4 -14 -10 0 -5
7 -7 15 -4 8 4 15 2 15 -4 0 -6 -4 -12 -8 -14 -5 -1 -15 -16 -23 -33 -9 -19
-23 -31 -39 -33 -13 -2 -35 -13 -49 -23 -13 -10 -30 -19 -37 -19 -8 0 -13 -3
-13 -7 4 -27 -3 -34 -30 -30 -17 3 -34 8 -40 11 -13 8 -33 -28 -25 -48 3 -8
12 -17 20 -20 9 -3 13 -10 10 -15 -3 -4 12 -42 33 -82 47 -92 62 -141 63 -206
0 -13 3 -23 7 -23 3 0 6 -18 6 -39 0 -36 -1 -38 -14 -19 -7 11 -14 38 -15 59
0 21 -4 39 -8 39 -4 0 -11 18 -14 41 l-7 41 -31 -35 c-29 -32 -45 -39 -171
-72 -191 -50 -196 -52 -230 -63 -16 -6 -48 -15 -70 -20 -39 -10 -237 -79 -345
-121 -30 -11 -67 -30 -82 -41 -33 -24 -175 -90 -194 -90 -7 0 -43 -13 -79 -30
-36 -16 -70 -30 -76 -30 -5 0 -20 -7 -33 -15 -13 -9 -36 -20 -52 -25 -81 -25
-198 -71 -213 -83 -22 -19 -165 -77 -189 -77 -11 0 -55 -16 -98 -36 -110 -50
-129 -58 -216 -94 -42 -17 -97 -49 -121 -71 -25 -21 -56 -39 -69 -39 -50 0
-65 -12 -96 -73 -17 -34 -41 -89 -52 -121 -20 -58 -20 -83 -20 -1068 l0 -1008
3455 0 3455 0 0 1271 0 1270 -30 27 c-16 15 -62 38 -102 52 -40 13 -80 28 -88
32 -23 13 -298 98 -368 114 -58 13 -222 64 -267 83 -44 18 -176 51 -207 51
-18 0 -69 6 -113 14 -44 8 -113 17 -152 21 -70 7 -124 26 -157 56 -30 27 -45
39 -51 39 -3 0 -24 12 -48 27 -23 15 -51 33 -62 40 -34 21 -127 63 -139 63
-10 0 -149 44 -191 61 -37 15 -269 69 -297 69 -53 0 -96 30 -123 86 l-26 53
25 56 c15 30 26 58 26 61 0 3 14 36 31 72 42 90 89 226 89 258 0 30 26 71 86
134 57 60 152 246 170 334 8 38 22 85 30 105 49 113 55 219 18 317 -37 97 -39
117 -16 166 10 24 25 62 31 86 6 23 16 42 21 42 5 0 14 25 21 55 11 48 10 64
-5 118 -13 45 -19 113 -23 255 l-5 193 -34 63 c-19 35 -34 77 -34 93 0 16 -5
34 -11 40 -13 13 -33 46 -48 80 -6 12 -23 25 -38 29 -65 15 -119 68 -138 135
-3 13 -10 34 -16 47 -5 12 -13 32 -18 45 -5 12 -12 53 -15 90 -6 71 -24 112
-69 154 -14 12 -30 43 -37 68 -13 47 -58 100 -94 111 -12 4 -23 10 -26 13 -10
13 -141 101 -150 101 -6 0 -10 5 -10 10 0 6 -9 10 -20 10 -12 0 -35 8 -53 17
-18 9 -48 20 -67 24 -19 4 -46 11 -59 15 -19 6 -22 4 -15 -7 6 -10 2 -10 -17
2 -41 27 -218 80 -268 80 -25 0 -57 0 -71 0 -13 1 -26 -4 -28 -10 -2 -6 -8
-11 -13 -11 -4 0 -6 6 -3 14 4 10 -13 13 -84 12 -50 -1 -88 -4 -86 -7 2 -3 34
-14 71 -24 85 -22 108 -40 38 -29 -27 4 -77 8 -110 7 l-60 0 40 14 40 13 -37
-4 c-21 -3 -40 0 -43 5 -4 5 -22 9 -41 9 -19 0 -34 5 -34 10 0 11 -17 11 -105
-1z m501 -29 c13 0 51 -13 86 -29 43 -20 66 -26 75 -20 18 16 131 -42 186 -95
26 -26 47 -48 47 -50 0 -15 -39 6 -69 37 -36 36 -131 85 -131 67 0 -6 -5 -10
-11 -10 -6 0 -9 7 -6 15 4 8 1 17 -5 21 -7 4 -8 3 -4 -4 12 -19 -17 -14 -65
11 -24 13 -72 32 -107 42 -38 12 -57 22 -50 26 7 5 17 4 22 -1 6 -6 20 -10 32
-10z m144 -30 c8 -5 11 -10 5 -10 -5 0 -17 5 -25 10 -8 5 -10 10 -5 10 6 0 17
-5 25 -10z m310 -113 c20 -19 50 -42 66 -51 79 -44 89 -55 105 -111 6 -22 21
-51 34 -65 13 -14 37 -54 55 -89 28 -57 31 -70 25 -117 -6 -53 4 -80 53 -132
6 -7 12 -27 12 -43 0 -17 5 -40 11 -51 10 -19 9 -20 -17 -13 -16 4 -35 8 -41
8 -17 0 -16 12 2 27 8 7 15 17 15 22 0 14 -47 4 -68 -15 -18 -17 -19 -16 -12
25 4 24 11 52 15 63 6 17 3 16 -13 -4 l-20 -24 -7 33 c-4 19 -4 35 1 37 10 3
10 75 -1 129 -3 19 -10 32 -15 29 -5 -3 -12 7 -16 22 -4 15 -14 36 -22 46 -10
11 -11 17 -4 17 7 0 12 5 12 11 0 6 -6 9 -14 6 -10 -4 -17 4 -21 24 -4 16 -10
29 -15 29 -4 0 -10 13 -13 30 -4 16 -15 38 -26 49 -11 11 -16 22 -13 26 4 3
-1 3 -10 0 -11 -4 -20 1 -28 14 -6 12 -15 21 -20 21 -5 0 -21 12 -36 26 -19
20 -21 25 -7 20 25 -9 -25 32 -54 44 -13 5 -23 14 -23 19 0 14 69 -25 110 -62z
m-676 47 c15 -6 17 -4 11 6 -5 8 -4 11 2 7 14 -9 4 -57 -12 -57 -7 0 -24 9
-38 20 -14 11 -30 20 -35 20 -6 0 -14 5 -18 12 -8 12 53 7 90 -8z m181 -16 c6
-6 4 -7 -8 -2 -13 5 -16 2 -11 -10 10 -26 -10 -18 -23 10 -11 23 -10 24 10 18
12 -3 27 -11 32 -16z m-195 -72 c24 -31 24 -31 -17 4 -22 19 -44 41 -47 48 -9
19 35 -17 64 -52z m75 9 c17 -13 26 -24 20 -25 -5 0 -23 11 -40 25 -16 13 -25
24 -20 25 6 0 24 -11 40 -25z m-735 -9 c0 -2 -8 -10 -17 -17 -16 -13 -17 -12
-4 4 13 16 21 21 21 13z m1310 -49 c18 -15 40 -52 40 -69 0 -12 -69 61 -70 75
0 11 13 8 30 -6z m-817 -57 c50 0 76 -10 70 -26 -3 -9 2 -14 16 -14 12 0 21 5
21 11 0 5 5 7 11 3 17 -10 -2 -21 -46 -26 -44 -6 -72 11 -53 30 8 8 4 11 -13
10 -41 -3 -105 4 -86 9 9 2 17 11 17 19 0 13 2 13 16 0 8 -9 30 -16 47 -16z
m137 -64 c0 -9 -40 -13 -46 -5 -3 5 6 9 20 9 14 0 26 -2 26 -4z m30 -32 c0 -2
-7 -4 -15 -4 -8 0 -15 4 -15 10 0 5 7 7 15 4 8 -4 15 -8 15 -10z m826 -50 c3
-16 3 -26 -1 -23 -3 4 -7 16 -10 28 -2 11 -7 27 -11 34 -5 9 -4 9 5 1 6 -6 14
-24 17 -40z m64 -130 c0 -8 -4 -12 -10 -9 -5 3 -10 10 -10 16 0 5 5 9 10 9 6
0 10 -7 10 -16z m-2220 -94 c0 -5 -7 -10 -16 -10 -8 0 -12 5 -9 10 3 6 10 10
16 10 5 0 9 -4 9 -10z m933 -67 c-7 -2 -19 -2 -25 0 -7 3 -2 5 12 5 14 0 19
-2 13 -5z m-1058 -73 c3 -6 -1 -7 -9 -4 -18 7 -21 14 -7 14 6 0 13 -4 16 -10z
m2555 -45 c8 -9 9 -15 2 -15 -6 0 -13 4 -16 9 -3 4 -18 6 -32 3 -19 -3 -25 -1
-20 7 10 16 51 14 66 -4z m26 -13 c-3 -5 8 -9 25 -10 40 -1 60 -19 53 -46 -3
-15 5 -31 31 -56 28 -27 35 -42 35 -71 0 -21 7 -50 15 -66 44 -83 58 -129 56
-175 -1 -33 -21 -38 -22 -5 0 12 -5 31 -10 42 -6 13 -7 -4 -3 -54 4 -54 2 -71
-6 -66 -7 4 -9 17 -6 28 3 14 -2 30 -16 44 -16 18 -18 25 -9 36 6 8 9 22 5 31
-4 11 -1 16 10 16 32 0 12 75 -26 99 -11 7 -17 8 -13 2 3 -6 3 -16 0 -22 -8
-11 -38 25 -42 50 -2 17 -24 32 -35 25 -4 -3 -8 -1 -8 4 0 5 -9 12 -21 15 -16
4 -19 11 -14 26 4 13 2 21 -5 21 -6 0 -9 -4 -5 -9 3 -5 2 -12 -3 -15 -12 -7
-11 26 0 41 15 19 28 6 28 -28 0 -18 4 -28 10 -24 6 4 7 11 4 17 -5 7 2 9 19
4 21 -5 25 -3 21 9 -4 8 -10 15 -15 15 -5 0 -13 8 -16 18 -4 9 -23 32 -42 50
-33 31 -34 33 -15 47 22 17 27 18 20 7z m-2746 -236 c0 -3 -4 -8 -10 -11 -5
-3 -10 -1 -10 4 0 6 5 11 10 11 6 0 10 -2 10 -4z m2804 -4 c3 -5 -1 -9 -9 -9
-8 0 -12 4 -9 9 3 4 7 8 9 8 2 0 6 -4 9 -8z m-1772 -206 c15 -19 17 -19 18 -3
0 25 20 21 20 -4 0 -18 2 -19 15 -9 12 10 15 10 15 -3 0 -9 9 -19 20 -22 11
-3 20 -11 20 -16 0 -14 48 -11 52 3 8 24 55 -8 63 -41 4 -17 10 -29 15 -26 5
3 12 0 15 -6 4 -5 12 -8 19 -6 6 3 12 -8 13 -26 3 -34 8 -42 22 -33 7 4 7 15
1 30 -7 19 -5 25 9 29 10 2 21 18 24 36 6 30 27 44 27 17 0 -22 47 -7 54 17 6
21 7 21 30 -7 16 -19 28 -26 37 -20 8 4 20 9 29 11 8 1 27 5 43 9 15 4 27 2
27 -3 0 -6 17 -10 38 -10 21 0 55 -6 76 -13 30 -10 35 -14 25 -26 -6 -8 -18
-14 -25 -14 -8 0 -14 -9 -14 -20 0 -11 -7 -20 -15 -20 -18 0 -20 -21 -3 -38 9
-9 9 -15 0 -24 -9 -9 -13 -7 -18 5 -8 22 -34 22 -34 0 0 -11 -25 -34 -60 -57
-33 -21 -60 -42 -60 -47 0 -5 -7 -9 -15 -9 -10 0 -15 10 -15 34 0 18 7 39 15
46 18 15 20 50 2 50 -20 0 -37 -21 -37 -46 0 -17 -5 -20 -26 -16 -20 3 -26 0
-31 -17 -3 -11 -9 -21 -14 -21 -5 0 -6 7 -3 15 4 10 0 15 -13 15 -10 0 -24 9
-31 20 -12 20 -42 28 -42 11 0 -12 -88 -21 -137 -14 -30 4 -43 11 -47 26 -3
14 -11 18 -25 14 -11 -3 -22 0 -25 7 -3 7 -8 6 -15 -4 -6 -8 -11 -10 -11 -4 0
14 -81 36 -140 39 -25 1 -65 5 -90 10 -68 12 -103 13 -129 3 -16 -6 -27 -5
-31 2 -5 8 -20 3 -45 -14 -21 -14 -44 -26 -52 -26 -7 0 -22 -5 -33 -12 -22
-14 -33 -8 -24 15 3 9 12 13 20 10 10 -4 14 3 14 24 0 16 8 37 18 47 24 24 84
65 105 72 9 4 17 13 17 21 0 12 7 14 29 10 19 -4 33 -1 41 8 7 8 29 15 49 16
20 0 56 8 81 18 55 23 117 17 142 -13z m365 -38 c-3 -8 -6 -5 -6 6 -1 11 2 17
5 13 3 -3 4 -12 1 -19z m-77 2 c0 -5 -4 -10 -10 -10 -5 0 -10 5 -10 10 0 6 5
10 10 10 6 0 10 -4 10 -10z m1640 -117 c-9 -42 -7 -88 4 -115 5 -10 6 -24 3
-31 -3 -7 3 -31 14 -53 13 -28 17 -52 13 -89 -8 -79 -12 -91 -40 -124 -14 -17
-23 -38 -20 -46 3 -8 0 -15 -6 -15 -9 0 -9 -3 0 -12 9 -9 5 -20 -15 -46 -26
-34 -26 -36 -10 -64 9 -16 17 -39 17 -51 0 -12 8 -35 17 -52 23 -41 23 -193 0
-250 l-17 -40 6 40 c10 67 9 167 -3 230 -12 63 -47 135 -66 135 -6 0 0 11 13
25 19 20 21 27 10 40 -10 12 -10 15 1 15 11 0 11 2 -1 10 -11 7 -12 10 -2 10
7 0 19 6 26 13 15 15 28 48 18 44 -11 -3 -14 7 -7 25 4 10 12 15 19 11 6 -4 5
1 -3 10 -7 9 -10 25 -6 34 6 17 7 17 16 1 6 -10 15 -18 21 -18 7 0 7 4 -1 13
-6 8 -8 17 -4 20 3 4 -2 9 -11 13 -9 3 -14 10 -11 14 8 12 -6 41 -16 34 -5 -3
-6 2 -3 10 3 9 10 16 15 16 4 0 6 7 2 15 -3 9 -2 15 3 14 22 -4 26 2 12 19
-20 23 -30 52 -17 52 6 0 8 11 5 28 -3 15 -3 50 2 77 9 61 5 105 -9 84 -7 -11
-9 -9 -9 8 0 16 4 21 15 17 9 -4 15 0 16 7 0 8 4 2 9 -13 4 -15 4 -44 0 -65z
m-2013 -49 c-3 -3 -12 -4 -19 -1 -8 3 -5 6 6 6 11 1 17 -2 13 -5z m1343 -64
c0 -5 -4 -10 -10 -10 -5 0 -10 5 -10 10 0 6 5 10 10 10 6 0 10 -4 10 -10z
m-1508 -69 c11 -11 25 -18 32 -15 45 16 51 -66 10 -125 -34 -46 -44 -50 -167
-56 -51 -3 -105 -7 -122 -10 -37 -6 -131 -15 -208 -20 -50 -3 -57 -1 -53 13 2
9 7 29 10 45 4 15 13 27 21 27 8 0 15 5 15 12 0 20 64 106 83 112 26 6 77 -13
77 -30 0 -16 13 -18 38 -5 25 14 56 24 65 23 4 -1 7 1 7 6 0 4 17 8 37 10 20
1 39 6 43 11 17 25 85 27 112 2z m1698 -27 c0 -8 -4 -12 -10 -9 -5 3 -10 10
-10 16 0 5 5 9 10 9 6 0 10 -7 10 -16z m-23 -30 c-3 -3 -12 -4 -19 -1 -8 3 -5
6 6 6 11 1 17 -2 13 -5z m45 -32 c-20 -6 -14 -20 10 -24 15 -2 24 -12 29 -33
3 -16 18 -52 32 -80 16 -32 22 -54 16 -61 -5 -6 -6 -13 -4 -16 11 -11 -51 5
-70 18 -11 8 -26 14 -35 14 -8 0 -20 10 -25 23 -6 12 -17 22 -25 22 -10 0 -15
10 -15 28 1 18 -4 27 -15 27 -13 0 -13 2 0 11 12 9 13 12 1 16 -11 5 -11 7 0
14 11 7 10 9 -3 9 -10 0 -18 5 -18 11 0 11 16 9 51 -5 10 -5 19 1 27 18 8 19
16 23 34 18 12 -3 17 -7 10 -10z m-2202 -203 c13 -48 8 -69 -18 -69 -15 0 -21
10 -26 41 -6 39 4 69 25 69 4 0 13 -18 19 -41z m297 35 c-4 -4 -23 -8 -44 -10
-25 -2 -32 0 -23 7 17 10 77 13 67 3z m180 0 c19 -5 20 -8 8 -20 -15 -15 -40
-17 -99 -7 l-38 6 28 13 c32 14 68 17 101 8z m-272 -14 c-3 -5 -12 -10 -18
-10 -7 0 -6 4 3 10 19 12 23 12 15 0z m-36 -14 c10 -11 7 -14 -14 -12 -27 1
-33 11 -12 19 6 3 13 6 13 6 1 1 7 -5 13 -13z m1878 -2 c-3 -3 -12 -4 -19 -1
-8 3 -5 6 6 6 11 1 17 -2 13 -5z m267 -44 c25 -9 37 -40 15 -40 -5 0 -7 5 -4
10 3 6 1 10 -4 10 -6 0 -11 -4 -11 -9 0 -5 -6 -16 -13 -23 -7 -7 -19 -22 -25
-33 -10 -17 -11 -12 -6 30 9 71 9 70 48 55z m-1810 -16 c23 -9 20 -22 -6 -26
-18 -2 -24 -11 -26 -37 -2 -18 1 -38 7 -44 20 -20 12 -26 -19 -16 -16 6 -30
15 -30 20 0 5 -7 9 -15 9 -8 0 -23 7 -34 16 -18 16 -18 17 2 37 11 11 37 26
56 33 43 16 45 16 65 8z m452 -9 c-3 -9 0 -15 9 -15 21 0 19 -11 -19 -103 -18
-45 -36 -99 -40 -120 -4 -21 -16 -53 -28 -72 -18 -31 -18 -34 -3 -29 15 6 16
4 6 -13 -11 -22 -32 -33 -59 -33 -12 1 -10 5 8 16 14 8 17 13 8 10 -12 -3 -15
-1 -11 10 3 9 -2 14 -16 14 -14 0 -19 -5 -15 -15 5 -11 2 -13 -10 -9 -9 3 -16
1 -16 -5 0 -19 -38 -12 -54 11 -14 19 -16 19 -22 5 -3 -9 -14 -17 -23 -17 -14
0 -14 -2 -1 -10 29 -19 -189 -11 -315 11 -168 30 -210 54 -220 127 -2 15 -7
52 -11 82 -6 47 -5 53 7 44 8 -7 41 -26 74 -43 33 -18 67 -36 75 -41 8 -5 23
-11 33 -14 11 -4 21 -15 24 -26 3 -11 17 -23 32 -26 14 -4 31 -12 36 -18 18
-21 144 -36 233 -28 45 4 82 4 82 0 0 -16 16 -7 25 14 6 13 21 23 38 25 34 5
67 31 67 55 0 10 5 18 10 18 6 0 8 11 6 25 -7 37 44 125 73 125 14 0 14 2 1
10 -10 6 -11 10 -2 10 6 0 11 3 11 8 -3 15 1 32 7 32 3 0 4 -7 0 -15z m1171
-127 c-2 -18 -4 -6 -4 27 0 33 2 48 4 33 2 -15 2 -42 0 -60z m-1047 32 c-8 -5
-22 -10 -30 -10 -13 0 -13 1 0 10 8 5 22 10 30 10 13 0 13 -1 0 -10z m1275
-36 c8 -48 4 -692 -6 -769 -4 -33 -10 -76 -14 -95 l-7 -35 21 33 c12 18 18 38
15 44 -4 6 -3 8 3 5 15 -9 53 22 53 44 0 10 -4 19 -10 19 -5 0 -10 -7 -10 -16
0 -8 -5 -12 -10 -9 -6 4 -8 16 -4 28 4 12 7 32 6 45 -1 12 2 22 7 22 5 0 12
14 16 30 4 17 11 30 17 30 5 0 8 6 6 12 -5 15 7 28 47 48 17 8 33 19 37 25 12
15 9 -4 -3 -27 -7 -13 -7 -18 -1 -14 6 3 16 23 22 44 15 46 30 64 30 34 0 -23
-26 -87 -46 -112 -7 -8 -19 -37 -28 -63 -25 -74 -43 -104 -81 -133 -19 -14
-45 -43 -57 -63 -12 -20 -26 -39 -30 -42 -5 -3 -8 -10 -7 -15 6 -19 -14 -109
-27 -128 -8 -11 -14 -28 -14 -37 0 -9 -7 -22 -15 -29 -8 -7 -16 -22 -17 -34
-1 -11 -4 15 -7 59 -3 44 -2 86 3 93 6 9 6 20 0 30 -12 19 -6 102 6 102 5 0
10 26 12 58 2 31 8 65 12 75 6 12 4 17 -8 17 -18 0 -22 16 -5 22 8 3 6 15 -5
41 -8 21 -13 44 -10 52 4 9 0 15 -9 15 -9 0 -20 7 -25 16 -6 11 -12 13 -16 6
-3 -6 -2 -13 4 -17 12 -7 14 -45 2 -45 -4 0 -13 14 -20 30 -8 17 -20 30 -28
30 -8 0 -13 5 -12 10 2 6 -8 16 -22 23 -16 8 -26 23 -28 40 -3 28 -22 38 -22
12 0 -8 -9 -15 -19 -15 -11 0 -22 -4 -25 -9 -8 -13 -55 -10 -85 5 -24 13 -26
12 -32 -9 -5 -22 -5 -22 -16 -2 -10 17 -15 18 -32 7 -17 -10 -21 -10 -22 0 0
7 -5 1 -10 -14 -9 -22 -15 -26 -44 -24 -21 2 -32 -1 -28 -7 4 -6 -8 -7 -33 -3
-40 7 -65 30 -102 94 -11 20 -10 22 8 22 11 0 20 4 20 9 0 4 62 12 138 17
l137 9 3 32 c2 23 -1 32 -14 35 -10 2 28 14 85 28 57 14 105 30 106 35 2 6 14
49 26 98 14 51 29 87 36 87 7 0 14 8 14 18 1 16 2 16 6 -1 2 -9 8 -15 13 -12
5 3 7 12 3 20 -3 11 4 17 26 21 17 4 28 10 25 15 -3 5 1 9 8 9 7 0 24 13 38
29 34 39 46 38 55 -5z m-1887 -14 c11 -19 10 -20 -28 -20 -30 0 -40 4 -40 16
0 10 6 14 15 10 8 -3 15 -1 15 4 0 17 25 11 38 -10z m-565 -84 c1 -25 -1 -46
-5 -46 -5 0 -8 23 -8 52 0 63 10 58 13 -6z m2212 -18 c-10 -97 -25 -137 -55
-153 -57 -29 -277 -40 -380 -19 l-25 6 23 19 c13 10 21 23 17 29 -3 5 1 10 10
10 9 0 13 -4 10 -10 -3 -5 1 -10 10 -10 9 0 13 5 10 10 -4 6 6 10 23 10 16 0
35 7 42 15 7 8 21 15 30 15 22 0 109 36 130 54 8 7 41 28 74 46 51 29 57 30
52 13 -4 -14 -2 -20 9 -20 9 0 15 9 15 24 0 13 3 23 6 23 3 0 3 -28 -1 -62z
m-2178 10 c-3 -7 -5 -2 -5 12 0 14 2 19 5 13 2 -7 2 -19 0 -25z m1195 15 c10
-9 18 -23 18 -31 0 -9 3 -12 7 -9 3 4 17 -3 30 -15 24 -22 31 -62 13 -73 -17
-10 -11 -44 9 -57 15 -9 18 -19 14 -45 -4 -21 -2 -33 6 -33 6 0 11 -4 11 -10
0 -15 -40 -12 -40 3 -1 7 -6 5 -14 -5 -7 -10 -15 -15 -18 -13 -3 3 -11 -1 -18
-10 -7 -8 -18 -15 -26 -15 -7 0 -18 -9 -24 -20 -12 -22 -46 -27 -53 -7 -3 8
-9 6 -19 -7 -9 -11 -22 -17 -31 -13 -8 3 -18 3 -21 -1 -4 -3 -16 -7 -27 -9
-21 -3 -64 -33 -104 -73 -12 -11 -25 -20 -30 -20 -6 0 -16 -9 -23 -20 -18 -29
-42 -25 -73 11 -24 29 -25 34 -13 58 8 14 14 32 14 39 0 21 51 83 129 157 40
39 90 97 111 130 38 59 65 83 105 97 34 10 48 9 67 -9z m-335 -169 c-3 -3 -12
-4 -19 -1 -8 3 -5 6 6 6 11 1 17 -2 13 -5z m-254 -11 c-7 -2 -21 -2 -30 0 -10
3 -4 5 12 5 17 0 24 -2 18 -5z m180 0 c-13 -2 -35 -2 -50 0 -16 2 -5 4 22 4
28 0 40 -2 28 -4z m697 -3 c18 -12 2 -12 -25 0 -13 6 -15 9 -5 9 8 0 22 -4 30
-9z m373 -37 c-13 -2 -33 -2 -45 0 -13 2 -3 4 22 4 25 0 35 -2 23 -4z m805
-105 c-17 -46 -24 -57 -26 -40 -2 13 1 28 6 35 5 7 15 30 22 52 7 22 15 35 17
28 3 -7 -6 -40 -19 -75z m-1208 -24 c0 -9 -5 -14 -12 -12 -18 6 -21 28 -4 28
9 0 16 -7 16 -16z m1000 -63 c0 -17 -4 -33 -10 -36 -6 -4 -10 8 -10 29 0 20 5
36 10 36 6 0 10 -13 10 -29z m-1645 -138 c17 -23 133 -62 168 -57 38 6 83 -16
81 -38 -1 -10 4 -14 12 -11 10 4 14 -5 14 -34 0 -37 2 -39 40 -50 32 -8 40 -8
40 3 0 8 8 14 18 14 10 0 27 7 39 15 14 10 24 12 28 5 4 -6 11 -7 17 -4 12 8
28 -13 28 -37 0 -11 -18 -21 -61 -33 -33 -10 -63 -24 -66 -32 -4 -11 -9 -9
-22 8 l-18 21 -30 -22 c-25 -19 -45 -23 -124 -25 -52 -2 -103 -8 -114 -13 -68
-35 -125 -34 -125 3 0 10 -9 14 -28 12 -35 -2 -56 10 -44 25 18 24 22 46 6 40
-9 -3 -14 2 -14 15 0 11 3 22 8 25 4 2 1 2 -6 0 -9 -2 -11 4 -7 20 14 53 50
117 67 123 11 3 23 16 28 29 7 18 14 22 32 17 13 -3 28 -11 33 -19z m290 -412
l50 -19 -27 -12 c-35 -16 -82 -1 -86 28 -4 27 0 27 63 3z m-222 -62 c9 0 17
-5 17 -11 0 -5 7 -8 14 -5 14 6 70 -2 141 -19 16 -4 36 -14 44 -22 12 -12 15
-12 23 2 5 8 15 13 23 9 9 -3 22 0 30 7 18 15 112 15 131 0 10 -9 11 -17 4
-30 -14 -26 -14 -27 23 -23 31 4 31 3 12 -12 -11 -8 -25 -13 -32 -11 -7 3 -13
1 -13 -4 0 -6 -9 -10 -19 -10 -11 0 -23 -5 -26 -10 -6 -10 -90 -8 -101 2 -3 3
-21 2 -40 -2 -19 -5 -47 -6 -62 -4 -67 9 -132 12 -132 6 1 -14 27 -42 39 -42
7 0 11 -10 9 -22 -2 -15 -9 -22 -20 -20 -22 3 -33 -15 -18 -33 6 -8 8 -20 4
-27 -4 -7 -4 -10 1 -6 4 4 16 -2 27 -14 10 -12 26 -23 36 -25 55 -9 199 -19
211 -15 9 3 12 1 7 -6 -4 -7 -1 -15 8 -18 9 -3 16 -12 16 -20 0 -8 10 -14 24
-14 14 0 31 -7 39 -15 11 -10 17 -11 19 -3 5 13 38 4 38 -11 0 -7 -9 -11 -50
-22 -3 0 -13 -5 -24 -11 -10 -5 -57 -12 -105 -14 -113 -5 -110 -5 -116 -25 -6
-18 -45 -34 -45 -18 0 5 -9 4 -20 -3 -11 -7 -20 -24 -20 -37 0 -18 -4 -22 -20
-18 -13 3 -20 0 -20 -9 0 -13 -34 -19 -100 -15 -44 3 -168 71 -192 107 -13 19
-26 34 -30 34 -5 0 -8 10 -8 23 0 12 -9 36 -19 53 -12 20 -16 36 -10 45 5 8 9
24 9 37 0 12 5 22 10 22 6 0 10 6 10 14 0 8 10 16 23 18 21 3 22 8 24 86 1 63
7 93 25 130 35 72 34 71 113 50 38 -11 78 -20 88 -19z m107 21 c0 -5 -10 -10
-22 -10 -19 0 -20 2 -8 10 19 13 30 13 30 0z m100 -20 c0 -5 -9 -10 -21 -10
-11 0 -17 5 -14 10 3 6 13 10 21 10 8 0 14 -4 14 -10z m40 0 c0 -5 -7 -10 -16
-10 -8 0 -12 5 -9 10 3 6 10 10 16 10 5 0 9 -4 9 -10z m-853 -192 c-3 -8 -6
-5 -6 6 -1 11 2 17 5 13 3 -3 4 -12 1 -19z m1950 -110 c-3 -8 -6 -5 -6 6 -1
11 2 17 5 13 3 -3 4 -12 1 -19z m-910 -100 c-3 -8 -6 -5 -6 6 -1 11 2 17 5 13
3 -3 4 -12 1 -19z m-897 -180 c0 -19 -2 -20 -10 -8 -13 19 -13 30 0 30 6 0 10
-10 10 -22z m50 -38 c0 -17 -15 -11 -28 11 -12 19 -11 19 8 9 11 -6 20 -15 20
-20z m-10 -50 c3 0 14 -13 23 -30 10 -16 25 -30 33 -30 8 0 17 -7 20 -15 4 -8
11 -15 16 -15 5 0 17 -9 26 -20 10 -10 24 -20 32 -22 8 -2 23 -15 32 -30 10
-16 25 -28 33 -28 8 0 15 -6 15 -12 0 -7 -11 -13 -24 -13 -18 0 -22 3 -14 12
7 9 1 11 -22 11 -18 -1 -39 7 -53 21 -13 11 -27 18 -30 14 -4 -3 -7 1 -7 10 0
10 -6 14 -14 11 -8 -3 -17 0 -21 5 -3 6 -11 9 -16 6 -5 -4 -5 5 1 20 7 17 7
24 0 20 -6 -3 -10 -1 -10 6 0 8 -4 8 -15 -1 -18 -15 -20 1 -2 19 9 10 9 12 0
7 -14 -8 -56 30 -48 44 3 5 1 11 -4 15 -6 3 -8 12 -5 20 5 11 10 10 27 -5 11
-11 23 -20 27 -20z m37 14 c-3 -3 -12 -4 -19 -1 -8 3 -5 6 6 6 11 1 17 -2 13
-5z m188 -324 c-3 -5 -11 -10 -16 -10 -6 0 -7 5 -4 10 3 6 11 10 16 10 6 0 7
-4 4 -10z m4092 -512 c-3 -8 -6 -5 -6 6 -1 11 2 17 5 13 3 -3 4 -12 1 -19z"/>
<path d="M4680 6520 c0 -5 5 -10 11 -10 5 0 7 5 4 10 -3 6 -8 10 -11 10 -2 0
-4 -4 -4 -10z"/>
<path d="M4780 6275 c0 -14 4 -25 9 -25 4 0 6 11 3 25 -2 14 -6 25 -8 25 -2 0
-4 -11 -4 -25z"/>
<path d="M5055 5830 c3 -5 8 -10 11 -10 2 0 4 5 4 10 0 6 -5 10 -11 10 -5 0
-7 -4 -4 -10z"/>
<path d="M5081 5824 c0 -11 3 -14 6 -6 3 7 2 16 -1 19 -3 4 -6 -2 -5 -13z"/>
<path d="M5060 5795 c7 -8 20 -14 29 -14 13 1 13 2 -1 6 -10 2 -18 9 -18 14 0
5 -5 9 -11 9 -8 0 -8 -5 1 -15z"/>
<path d="M3490 5400 c0 -5 5 -10 10 -10 6 0 10 5 10 10 0 6 -4 10 -10 10 -5 0
-10 -4 -10 -10z"/>
<path d="M4790 4962 c0 -6 -8 -13 -17 -15 -16 -4 -16 -5 -1 -6 18 -1 34 16 24
26 -3 4 -6 1 -6 -5z"/>
<path d="M2487 4920 c8 -31 23 -34 23 -6 0 16 -6 26 -14 26 -9 0 -12 -7 -9
-20z"/>
<path d="M3178 4523 c7 -3 16 -2 19 1 4 3 -2 6 -13 5 -11 0 -14 -3 -6 -6z"/>
<path d="M3375 3600 c3 -5 11 -10 16 -10 6 0 7 5 4 10 -3 6 -11 10 -16 10 -6
0 -7 -4 -4 -10z"/>
<path d="M3435 3590 c-3 -5 1 -10 10 -10 9 0 13 5 10 10 -3 6 -8 10 -10 10 -2
0 -7 -4 -10 -10z"/>
<path d="M3768 6903 c6 -2 18 -2 25 0 6 3 1 5 -13 5 -14 0 -19 -2 -12 -5z"/>
<path d="M2800 4001 c0 -12 5 -21 10 -21 6 0 10 6 10 14 0 8 -4 18 -10 21 -5
3 -10 -3 -10 -14z"/>
</g>
</svg>
